<svg width="32" height="32" viewBox="0 0 32 32" fill="none" xmlns="http://www.w3.org/2000/svg">
<path d="M32 16C32 24.8366 24.8366 32 16 32C7.16344 32 0 24.8366 0 16C0 7.16344 7.16344 0 16 0C24.8366 0 32 7.16344 32 16Z" fill="white"/>
<path d="M9.33331 24.4997C9.33331 22.1985 12.3181 20.333 16 20.333C19.6819 20.333 22.6666 22.1985 22.6666 24.4997" stroke="#B6B6B6" stroke-width="2" stroke-linecap="round" stroke-linejoin="round"/>
<path d="M16 17.8333C18.3012 17.8333 20.1666 15.9679 20.1666 13.6667C20.1666 11.3655 18.3012 9.5 16 9.5C13.6988 9.5 11.8333 11.3655 11.8333 13.6667C11.8333 15.9679 13.6988 17.8333 16 17.8333Z" stroke="#B6B6B6" stroke-width="2" stroke-linecap="round" stroke-linejoin="round"/>
</svg>
